<svg width="18" height="18" viewBox="0 0 18 18" fill="none" xmlns="http://www.w3.org/2000/svg">
<path d="M8.99982 18C10.5617 18 12.0936 17.5939 13.4475 16.825L16.9233 17.9687C16.9882 17.9904 17.0531 18 17.1144 18C17.2645 18 17.4099 17.9447 17.5264 17.8426C17.6898 17.6948 17.7631 17.4702 17.7175 17.2551L16.8813 13.3493C17.6165 12.0205 18.0034 10.5223 18.0034 9C18.0034 4.03558 13.9653 0 9.00338 0C4.04142 0 0 4.03558 0 9C0 13.9644 4.0354 18 8.99982 18ZM8.99982 1.23053C13.2842 1.23053 16.7696 4.71464 16.7696 9.00026C16.7696 10.3843 16.3971 11.7467 15.6967 12.9374C15.6198 13.0696 15.5922 13.227 15.6258 13.3771L16.2866 16.4648L13.5641 15.5697C13.3923 15.5145 13.2037 15.5361 13.0499 15.6286C11.8317 16.3735 10.432 16.7699 8.99617 16.7699C4.71177 16.7699 1.22643 13.2858 1.22643 9.00021C1.22764 4.71581 4.71573 1.23053 8.99982 1.23053Z" fill="#AA0F25"/>
<path d="M5.29091 7.91752H12.706C13.0448 7.91752 13.3212 7.64119 13.3212 7.30239C13.3212 6.96357 13.0448 6.68726 12.706 6.68726H5.29091C4.9521 6.68726 4.67578 6.96359 4.67578 7.30239C4.67578 7.64 4.95211 7.91752 5.29091 7.91752Z" fill="#AA0F25"/>
<path d="M5.29091 11.3125H12.706C13.0448 11.3125 13.3212 11.0362 13.3212 10.6974C13.3212 10.3586 13.0448 10.0823 12.706 10.0823H5.29091C4.9521 10.0823 4.67578 10.3586 4.67578 10.6974C4.67578 11.0362 4.95211 11.3125 5.29091 11.3125Z" fill="#AA0F25"/>
</svg>
