<svg width="17" height="16" viewBox="0 0 17 16" fill="none" xmlns="http://www.w3.org/2000/svg">
<g clip-path="url(#clip0_221_849)">
<path d="M8.6698 0C4.25156 0 0.6698 3.58176 0.6698 8C0.6698 11.7517 3.25284 14.8998 6.73732 15.7645V10.4448H5.08772V8H6.73732V6.94656C6.73732 4.22368 7.96964 2.9616 10.6429 2.9616C11.1498 2.9616 12.0244 3.06112 12.3821 3.16032V5.37632C12.1933 5.35648 11.8653 5.34656 11.458 5.34656C10.1463 5.34656 9.6394 5.84352 9.6394 7.13536V8H12.2525L11.8036 10.4448H9.6394V15.9414C13.6007 15.463 16.6701 12.0902 16.6701 8C16.6698 3.58176 13.088 0 8.6698 0Z" fill="#AA0F25"/>
</g>
<defs>
<clipPath id="clip0_221_849">
<rect width="16" height="16" fill="white" transform="translate(0.6698)"/>
</clipPath>
</defs>
</svg>
