<svg width="17" height="16" viewBox="0 0 17 16" fill="none" xmlns="http://www.w3.org/2000/svg">
<g clip-path="url(#clip0_221_855)">
<path d="M8.6698 1.44062C10.8073 1.44062 11.0604 1.45 11.9011 1.4875C12.6823 1.52187 13.1042 1.65313 13.3854 1.7625C13.7573 1.90625 14.0261 2.08125 14.3042 2.35938C14.5854 2.64062 14.7573 2.90625 14.9011 3.27813C15.0104 3.55938 15.1417 3.98438 15.1761 4.7625C15.2136 5.60625 15.2229 5.85938 15.2229 7.99375C15.2229 10.1313 15.2136 10.3844 15.1761 11.225C15.1417 12.0063 15.0104 12.4281 14.9011 12.7094C14.7573 13.0813 14.5823 13.35 14.3042 13.6281C14.0229 13.9094 13.7573 14.0813 13.3854 14.225C13.1042 14.3344 12.6792 14.4656 11.9011 14.5C11.0573 14.5375 10.8042 14.5469 8.6698 14.5469C6.5323 14.5469 6.27918 14.5375 5.43855 14.5C4.6573 14.4656 4.23543 14.3344 3.95417 14.225C3.5823 14.0813 3.31355 13.9063 3.03542 13.6281C2.75417 13.3469 2.5823 13.0813 2.43855 12.7094C2.32917 12.4281 2.19792 12.0031 2.16355 11.225C2.12605 10.3813 2.11667 10.1281 2.11667 7.99375C2.11667 5.85625 2.12605 5.60313 2.16355 4.7625C2.19792 3.98125 2.32917 3.55938 2.43855 3.27813C2.5823 2.90625 2.7573 2.6375 3.03542 2.35938C3.31667 2.07812 3.5823 1.90625 3.95417 1.7625C4.23543 1.65313 4.66043 1.52187 5.43855 1.4875C6.27918 1.45 6.5323 1.44062 8.6698 1.44062ZM8.6698 0C6.49793 0 6.22605 0.009375 5.37293 0.046875C4.52293 0.084375 3.93855 0.221875 3.4323 0.41875C2.90418 0.625 2.4573 0.896875 2.01355 1.34375C1.56667 1.7875 1.2948 2.23438 1.08855 2.75938C0.891675 3.26875 0.754175 3.85 0.716675 4.7C0.679175 5.55625 0.6698 5.82812 0.6698 8C0.6698 10.1719 0.679175 10.4438 0.716675 11.2969C0.754175 12.1469 0.891675 12.7313 1.08855 13.2375C1.2948 13.7656 1.56667 14.2125 2.01355 14.6562C2.4573 15.1 2.90418 15.375 3.42918 15.5781C3.93855 15.775 4.5198 15.9125 5.3698 15.95C6.22293 15.9875 6.4948 15.9969 8.66668 15.9969C10.8386 15.9969 11.1104 15.9875 11.9636 15.95C12.8136 15.9125 13.3979 15.775 13.9042 15.5781C14.4292 15.375 14.876 15.1 15.3198 14.6562C15.7636 14.2125 16.0386 13.7656 16.2417 13.2406C16.4386 12.7313 16.5761 12.15 16.6136 11.3C16.6511 10.4469 16.6604 10.175 16.6604 8.00313C16.6604 5.83125 16.6511 5.55938 16.6136 4.70625C16.5761 3.85625 16.4386 3.27188 16.2417 2.76562C16.0448 2.23438 15.7729 1.7875 15.3261 1.34375C14.8823 0.9 14.4354 0.625 13.9104 0.421875C13.4011 0.225 12.8198 0.0875 11.9698 0.05C11.1136 0.009375 10.8417 0 8.6698 0Z" fill="#AA0F25"/>
<path d="M8.6698 3.89062C6.40105 3.89062 4.56042 5.73125 4.56042 8C4.56042 10.2688 6.40105 12.1094 8.6698 12.1094C10.9385 12.1094 12.7792 10.2688 12.7792 8C12.7792 5.73125 10.9385 3.89062 8.6698 3.89062ZM8.6698 10.6656C7.19793 10.6656 6.00417 9.47188 6.00417 8C6.00417 6.52813 7.19793 5.33437 8.6698 5.33437C10.1417 5.33437 11.3354 6.52813 11.3354 8C11.3354 9.47188 10.1417 10.6656 8.6698 10.6656Z" fill="#AA0F25"/>
<path d="M13.901 3.72818C13.901 4.25943 13.4698 4.68755 12.9417 4.68755C12.4104 4.68755 11.9823 4.2563 11.9823 3.72818C11.9823 3.19692 12.4136 2.7688 12.9417 2.7688C13.4698 2.7688 13.901 3.20005 13.901 3.72818Z" fill="#AA0F25"/>
</g>
<defs>
<clipPath id="clip0_221_855">
<rect width="16" height="16" fill="white" transform="translate(0.6698)"/>
</clipPath>
</defs>
</svg>
