<svg width="20" height="14" viewBox="0 0 20 14" fill="none" xmlns="http://www.w3.org/2000/svg">
<path d="M0.528651 0C0.241893 0.0270261 -0.00123718 0.295308 4.73693e-06 0.583333V13.4167C3.53619e-05 13.7221 0.277914 14 0.583338 14H18.6667C18.9721 14 19.25 13.7221 19.25 13.4167V0.583333C19.25 0.277909 18.9721 3.0625e-05 18.6667 0C12.6218 0 6.56962 0 0.528651 0ZM2.05079 1.16667H17.1992L9.625 8.23958L2.05079 1.16667ZM1.16667 1.94141L6.3711 6.79948L4.25652 8.91406C4.03241 9.12719 4.02629 9.52715 4.24376 9.74704C4.46124 9.96693 4.86124 9.96523 5.07683 9.74349L7.22787 7.59245L9.22396 9.46094C9.43805 9.66358 9.81196 9.66358 10.026 9.46094L12.0221 7.59245C13.2541 8.82384 14.702 10.2725 15.9232 11.4935C16.1388 11.7152 16.5388 11.7169 16.7563 11.497C16.9737 11.2771 16.9676 10.8772 16.7435 10.6641C15.5339 9.45472 14.1039 8.02388 12.8789 6.79948L18.0833 1.94141V12.8333H1.16667V1.94141ZM3.13542 10.1992C3.00804 10.2176 2.88736 10.2796 2.79818 10.3724C2.69737 10.4732 2.60731 10.5633 2.50652 10.6641C2.28241 10.8772 2.27629 11.2771 2.49376 11.497C2.71124 11.7169 3.11123 11.7152 3.32683 11.4935C3.4276 11.3927 3.51773 11.3026 3.61849 11.2018C3.79791 11.0333 3.85151 10.7451 3.74467 10.5233C3.63783 10.3016 3.37902 10.1639 3.13542 10.1992Z" fill="#AA0F25"/>
</svg>
