<svg width="195" height="36" viewBox="0 0 195 36" fill="none" xmlns="http://www.w3.org/2000/svg">
<path d="M161.045 17.7278C161.045 15.1159 161.068 12.5039 161.045 9.89196C161.02 9.38814 160.798 8.91234 160.424 8.56055C160.051 8.20876 159.553 8.00716 159.032 7.99642C158.396 7.94791 157.752 7.99642 156.966 7.99642C156.966 8.6009 156.966 9.17926 156.966 9.75389C156.923 11.0002 156.052 11.9181 154.918 11.9367C153.785 11.9554 152.905 11.0599 152.836 9.7912C152.801 9.23523 152.836 8.67179 152.836 7.98149C152.208 7.98149 151.641 7.98149 151.078 7.98149C149.69 7.94044 148.687 7.04865 148.714 5.90312C148.741 4.85088 149.717 4.05983 151.055 4.00386C152.77 3.93296 152.77 3.93295 152.832 2.28369C152.882 0.98144 153.754 0.0112855 154.887 9.1372e-05C156.021 -0.0111027 156.958 1.00756 156.977 2.33966C156.977 2.86205 156.977 3.38071 156.977 4.00758C157.706 4.00758 158.342 4.00758 158.974 4.00758C162.591 4.10086 165.198 6.61954 165.24 10.127C165.282 13.4853 165.271 16.8435 165.24 20.2017C165.24 22.6868 165.375 25.2018 165.028 27.6458C164.299 32.7951 159.244 36.4257 153.877 35.9369C151.312 35.6761 148.94 34.4993 147.224 32.6362C145.507 30.7732 144.571 28.3579 144.596 25.8622C144.627 21.9443 146.555 19.0637 149.987 17.198C153.418 15.3323 156.807 15.5711 160.162 17.4107C160.386 17.5301 160.605 17.6569 160.833 17.7838C160.852 17.7913 160.891 17.7652 161.045 17.7278ZM161.045 26.0189C161.057 24.4335 160.423 22.9074 159.279 21.772C158.136 20.6367 156.575 19.9839 154.937 19.9555C153.3 19.9618 151.73 20.5861 150.562 21.6956C149.393 22.805 148.718 24.3119 148.68 25.8958C148.68 29.3361 151.355 31.9406 154.953 31.9667C156.574 31.9549 158.125 31.3229 159.267 30.2087C160.409 29.0944 161.05 27.5883 161.049 26.0189H161.045Z" fill="#ECBAB9"/>
<path d="M10.3199 17.4666C11.1 16.7601 12.0636 16.2718 13.108 16.0536C14.1523 15.8354 15.2383 15.8956 16.2501 16.2278C18.6445 16.9741 20.0865 18.6271 20.5184 21.045C20.606 21.598 20.6434 22.1574 20.6302 22.7167C20.6302 26.3212 20.6302 29.9282 20.6302 33.5376C20.6302 34.5041 20.3063 35.3175 19.3501 35.7541C18.9937 35.948 18.5773 36.0121 18.1763 35.9348C17.7753 35.8575 17.4162 35.6438 17.1639 35.3324C16.7497 34.7911 16.5169 34.14 16.4968 33.4667C16.4351 29.8324 16.4737 26.1943 16.4583 22.5599C16.4769 22.0973 16.4116 21.6351 16.2655 21.1943C16.1051 20.7652 15.7877 20.4079 15.3735 20.1899C14.9593 19.972 14.4769 19.9085 14.0176 20.0114C13.5361 20.1025 13.1047 20.3587 12.803 20.7331C12.5012 21.1074 12.3492 21.5746 12.375 22.0487C12.3557 25.8062 12.375 29.5675 12.348 33.3287C12.3476 33.8805 12.2267 34.426 11.9933 34.9294C11.8295 35.2903 11.5409 35.5846 11.177 35.7617C10.8132 35.9388 10.3969 35.9876 9.99988 35.8996C9.5799 35.8568 9.18606 35.6817 8.87887 35.4013C8.57167 35.1209 8.36812 34.7506 8.2995 34.3473C8.23663 33.9775 8.21081 33.6026 8.22238 33.2279C8.22238 29.713 8.22238 26.2018 8.22238 22.6905C8.24209 22.196 8.17694 21.7017 8.0296 21.2278C7.87449 20.7963 7.56112 20.4348 7.14892 20.212C6.73671 19.9891 6.25433 19.9204 5.79326 20.0189C5.29878 20.1111 4.85559 20.3736 4.54578 20.7578C4.23598 21.142 4.08055 21.6219 4.1083 22.1085C4.1083 25.8062 4.1083 29.504 4.1083 33.2018C4.12127 33.5118 4.11096 33.8224 4.07745 34.1309C4.03274 34.6353 3.78949 35.1038 3.39797 35.4395C3.00645 35.7753 2.4966 35.9526 1.97381 35.9349C1.45101 35.9172 0.955241 35.7057 0.588965 35.3443C0.222689 34.9828 0.0139111 34.499 0.00578409 33.9929C0.00578409 33.9294 0.00578409 33.8697 0.00578409 33.8063C0.00578409 29.7988 -0.0173513 25.7876 0.0289176 21.7801C0.0597636 19.2987 1.39 17.5002 3.64947 16.4965C5.80869 15.5338 7.96405 15.7726 9.9112 17.198C10.0076 17.2801 10.1464 17.3584 10.3199 17.4666Z" fill="#ECBAB9"/>
<path d="M45.3373 24.0032C45.3767 23.2137 45.3703 22.4226 45.318 21.6338C45.1985 20.5741 44.3155 19.9584 43.0238 19.9472C40.5831 19.9472 38.1463 19.9472 35.6979 19.9472C35.2186 19.9519 34.7418 19.8801 34.2867 19.7345C33.8742 19.5927 33.5239 19.3193 33.2934 18.9592C33.0628 18.5991 32.9658 18.1737 33.0182 17.7532C33.1338 16.8576 33.932 16.0181 34.8612 16.0106C38.0075 15.9845 41.1576 15.9211 44.2962 16.0554C46.7215 16.1636 49.2393 18.5032 49.3742 20.936C49.5715 24.313 49.5625 27.6983 49.3473 31.0742C49.1699 33.716 46.6058 35.8429 43.8412 35.925C40.7566 36.0182 37.672 36.0294 34.5875 35.925C31.3293 35.8167 28.854 33.119 28.8887 29.91C28.8648 28.3802 29.4658 26.9032 30.5611 25.7999C31.6564 24.6966 33.1574 24.0563 34.7378 24.0182C38.2311 23.951 41.7244 24.0032 45.3373 24.0032ZM39.1681 31.9436C40.4173 31.9436 41.6666 31.9622 42.9159 31.9436C43.3605 31.9537 43.8025 31.8763 44.2152 31.716C44.643 31.5281 44.9895 31.2016 45.1951 30.7929C45.4006 30.3842 45.4523 29.9188 45.3411 29.4771C45.1368 28.6115 44.2962 27.9846 43.1588 27.9846C40.533 27.9622 37.9034 27.9585 35.2776 27.9846C33.9358 27.9846 33.0452 28.8167 33.0297 29.9324C33.0143 31.0481 33.9782 31.91 35.32 31.9436C36.6618 31.9772 37.8687 31.9436 39.1527 31.9436H39.1681Z" fill="#ECBAB9"/>
<path d="M132.103 23.9863C132.103 24.0423 132.103 23.9863 132.123 23.9266C132.285 20.8034 132.018 19.7736 128.302 19.9303C126.219 20.0161 124.126 19.9639 122.04 19.9303C121.569 19.9582 121.102 19.8367 120.71 19.5841C120.317 19.3315 120.021 18.9617 119.865 18.531C119.725 18.1427 119.725 17.7201 119.866 17.3319C120.006 16.9437 120.277 16.6127 120.636 16.393C121.027 16.1332 121.489 15.9905 121.963 15.9825C124.82 15.9527 127.677 15.9303 130.534 15.9825C133.318 16.0459 135.998 18.2586 136.16 20.9378C136.366 24.2831 136.366 27.6373 136.16 30.9826C135.994 33.6319 133.461 35.7998 130.704 35.8894C127.561 35.9901 124.411 36.005 121.269 35.8894C118.126 35.7737 115.651 33.0237 115.701 29.8558C115.697 28.3495 116.295 26.9002 117.369 25.81C118.443 24.7199 119.91 24.0732 121.465 24.005C123.231 23.949 124.997 23.9788 126.763 23.9751L132.103 23.9863ZM125.888 31.9453C127.199 31.9453 128.514 31.9677 129.828 31.9453C131.209 31.9155 132.103 31.1169 132.123 29.9565C132.142 28.796 131.243 27.9938 129.809 27.9826C127.239 27.9602 124.676 27.9602 122.121 27.9826C120.706 27.9826 119.784 28.7699 119.757 29.9154C119.73 31.061 120.71 31.9192 122.125 31.949C123.385 31.964 124.635 31.9453 125.888 31.9453Z" fill="#ECBAB9"/>
<path d="M189.932 24.0087C189.932 24.0423 189.955 23.9863 189.959 23.9303C190.117 20.8072 189.859 19.7736 186.138 19.9303C184.056 20.0161 181.966 19.9602 179.88 19.9303C178.789 19.9303 177.983 19.3781 177.702 18.531C177.562 18.1433 177.562 17.7212 177.702 17.3337C177.842 16.9461 178.114 16.6158 178.473 16.3967C178.862 16.1332 179.324 15.9889 179.799 15.9825C182.656 15.9527 185.513 15.9303 188.37 15.9825C191.154 16.0459 193.834 18.2549 193.996 20.934C194.202 24.2806 194.202 27.6361 193.996 30.9826C193.83 33.6282 191.297 35.7998 188.544 35.8894C185.402 35.9901 182.248 36.005 179.109 35.8894C175.97 35.7737 173.487 33.0237 173.537 29.8595C173.587 26.6953 176.086 24.0796 179.321 24.0124C182.799 23.9527 186.315 24.0087 189.932 24.0087ZM183.763 31.9453H187.707C189.072 31.8819 189.959 31.0722 189.951 29.9042C189.944 28.7363 189.053 27.9938 187.7 27.9789C185.101 27.9515 182.505 27.9515 179.911 27.9789C178.511 27.9789 177.597 28.8072 177.597 29.9565C177.597 31.1058 178.561 31.9117 179.911 31.9416C181.206 31.9677 182.49 31.9453 183.771 31.9453H183.763Z" fill="#ECBAB9"/>
<path d="M97.0695 29.4201C99.1786 25.3343 101.23 21.3753 103.266 17.4088C103.713 16.5394 104.291 15.9163 105.398 15.9722C105.711 15.9831 106.017 16.0631 106.293 16.2061C106.569 16.3491 106.807 16.5514 106.99 16.7973C107.173 17.0433 107.295 17.3266 107.347 17.6253C107.399 17.924 107.38 18.2303 107.291 18.5208C107.201 18.7858 107.087 19.0429 106.952 19.2894C104.341 24.338 101.739 29.3865 99.1015 34.4201C98.8606 34.9218 98.4901 35.355 98.0258 35.6776C96.9963 36.3045 95.7547 35.8754 95.1301 34.7224C94.224 33.047 93.3719 31.3641 92.4966 29.6552C90.6883 26.1626 88.8645 22.6738 87.0754 19.1738C86.2002 17.4573 87.1101 15.9424 88.9416 15.9797C89.9788 16.0021 90.4453 16.6849 90.8463 17.4723C92.7357 21.1365 94.625 24.7994 96.5143 28.4611C96.6647 28.7447 96.842 29.0283 97.0695 29.4201Z" fill="#ECBAB9"/>
<path d="M61.9249 29.7559C61.9249 31.0619 61.9249 32.3679 61.9249 33.6702C61.9249 34.9724 61.0304 35.9388 59.8775 35.9463C58.7247 35.9538 57.8263 35.0023 57.8224 33.7075C57.8224 31.0022 57.7646 28.3007 57.8494 25.5992C57.9305 23.3952 58.7608 21.2787 60.2116 19.5779C61.6623 17.8771 63.6524 16.6871 65.8732 16.1924C68.1158 15.6926 70.4672 15.9438 72.5431 16.9049C74.619 17.866 76.2966 19.4801 77.3017 21.4835C77.8635 22.7335 78.2349 24.0557 78.4044 25.4089C78.6435 26.8455 77.8068 27.8418 76.5305 27.9537C75.3198 28.0619 74.3327 27.1403 74.2942 25.6888C74.2546 24.753 73.9882 23.8394 73.5164 23.0218C73.0445 22.2041 72.3806 21.5054 71.5781 20.9819C70.7756 20.4585 69.8572 20.1251 68.8969 20.0087C67.9367 19.8923 66.9617 19.9962 66.0506 20.3118C63.6986 21.0395 62.0175 23.338 61.9365 25.9537C61.8979 27.2261 61.9365 28.5022 61.9365 29.7746L61.9249 29.7559Z" fill="#ECBAB9"/>
</svg>
